<svg fill-opacity="0.5" data-v-fde0c5aa="" xmlns="http://www.w3.org/2000/svg" viewBox="0 0 300 300" class="iconLeftSlogan"><!----><defs data-v-fde0c5aa=""><!----></defs><rect data-v-fde0c5aa="" fill="#FFFAFA" x="0" y="0" width="300px" height="300px" class="logo-background-square"></rect><defs data-v-fde0c5aa=""><!----></defs><g data-v-fde0c5aa="" id="56c8005d-8a7a-421d-a389-220d4347023a" fill="#000" transform="matrix(1.4414588467309077,0,0,1.4414588467309077,104.54611876321637,127.58903913719136)"><path d="M0.49 11.14C0.99 13.01 2.46 14.14 4.48 14.14C6.38 14.14 7.94 13.02 7.94 11.37C7.94 7.80 2.17 9.07 2.17 6.24C2.17 5.28 3.07 4.62 4.37 4.62C5.59 4.62 6.47 5.33 6.82 6.51L7.90 6.51C7.52 4.80 6.24 3.64 4.37 3.64C2.44 3.64 1.08 4.72 1.08 6.24C1.08 10.05 6.83 8.69 6.83 11.40C6.83 12.40 5.84 13.16 4.48 13.16C3.14 13.16 2.03 12.49 1.60 11.14ZM9.06 7.62L10.19 7.62L10.19 12.00C10.19 13.57 11.06 14.14 12.18 14.14C12.92 14.14 13.62 13.99 14.20 13.73L14.08 12.84C13.57 13.06 12.98 13.22 12.33 13.22C11.65 13.22 11.23 12.85 11.23 11.98L11.23 7.62L14.15 7.62L14.15 6.72L11.23 6.72L11.23 4.65L10.22 4.91L10.22 6.72L9.06 6.72ZM21.04 6.72L21.04 12.18C20.10 12.82 19.15 13.22 18.33 13.22C17.23 13.22 16.63 12.60 16.63 11.42L16.63 6.72L15.58 6.72L15.58 11.47C15.58 13.22 16.52 14.14 18.06 14.14C19.14 14.14 20.09 13.78 21.17 13.06L21.35 14L22.09 14L22.09 6.72ZM30.27 3.08L30.27 7.66C29.62 6.94 28.74 6.58 27.66 6.58C25.62 6.58 23.98 8.20 23.98 10.33C23.98 12.52 25.61 14.14 27.68 14.14C28.87 14.14 29.76 13.69 30.41 12.87L30.60 14L31.28 14L31.28 3.08ZM27.71 13.23C26.28 13.23 25.05 11.97 25.05 10.33C25.05 8.72 26.28 7.49 27.71 7.49C28.91 7.49 29.76 8.11 30.24 9.03L30.24 11.68C29.75 12.63 28.92 13.23 27.71 13.23ZM36.82 6.58C34.78 6.58 33.19 8.19 33.19 10.33C33.19 12.50 34.73 14.14 36.83 14.14C38.50 14.14 39.76 13.06 40.00 11.76L39.00 11.76C38.79 12.66 37.94 13.23 36.83 13.23C35.39 13.23 34.33 12.15 34.22 10.63L40.04 10.63L40.14 10.54C40.32 8.41 38.84 6.58 36.82 6.58ZM34.26 9.74C34.51 8.39 35.57 7.48 36.81 7.48C38.09 7.48 38.99 8.48 39.13 9.76ZM46.31 6.58C45.15 6.58 44.09 6.99 42.97 7.78L42.80 6.72L42.04 6.72L42.04 14L43.08 14L43.08 8.65C44.07 7.98 45.14 7.50 46.05 7.50C47.15 7.50 47.78 8.12 47.78 9.30L47.78 14L48.83 14L48.83 9.25C48.83 7.50 47.88 6.58 46.31 6.58ZM50.30 7.62L51.44 7.62L51.44 12.00C51.44 13.57 52.30 14.14 53.42 14.14C54.17 14.14 54.87 13.99 55.44 13.73L55.33 12.84C54.81 13.06 54.22 13.22 53.58 13.22C52.89 13.22 52.47 12.85 52.47 11.98L52.47 7.62L55.40 7.62L55.40 6.72L52.47 6.72L52.47 4.65L51.46 4.91L51.46 6.72L50.30 6.72ZM56.62 8.54C56.62 11.48 61.57 10.02 61.59 12.05C61.60 12.88 60.79 13.29 59.61 13.29C58.39 13.29 57.41 12.75 57.22 11.69L56.22 11.69C56.45 13.34 57.93 14.14 59.58 14.14C61.31 14.14 62.61 13.40 62.61 12.05C62.61 9.14 57.64 10.57 57.64 8.54C57.64 7.94 58.24 7.43 59.51 7.43C60.91 7.43 61.40 8.13 61.50 8.99L62.47 8.99C62.38 7.70 61.47 6.58 59.54 6.58C57.61 6.58 56.62 7.43 56.62 8.54ZM77.83 9.39L73.35 9.39L73.35 10.33L76.83 10.33C76.59 12.05 75.22 13.17 73.14 13.17C70.88 13.17 68.91 11.48 68.91 8.89C68.91 6.30 70.88 4.61 73.14 4.61C75.17 4.61 76.51 5.87 76.75 7.62L77.78 7.62C77.57 5.39 75.70 3.64 73.14 3.64C70.28 3.64 67.80 5.75 67.80 8.86C67.80 12.01 70.28 14.14 73.14 14.14C75.95 14.14 77.83 12.33 77.83 9.76ZM85.19 6.72L85.19 12.18C84.25 12.82 83.30 13.22 82.47 13.22C81.38 13.22 80.78 12.60 80.78 11.42L80.78 6.72L79.73 6.72L79.73 11.47C79.73 13.22 80.67 14.14 82.21 14.14C83.29 14.14 84.24 13.78 85.32 13.06L85.50 14L86.24 14L86.24 6.72ZM89.25 5.10C89.68 5.10 90.05 4.73 90.05 4.27C90.05 3.85 89.68 3.50 89.25 3.50C88.80 3.50 88.45 3.85 88.45 4.27C88.45 4.73 88.80 5.10 89.25 5.10ZM89.74 6.72L88.69 6.72L88.69 14L89.74 14ZM97.96 3.08L97.96 7.66C97.31 6.94 96.43 6.58 95.35 6.58C93.31 6.58 91.67 8.20 91.67 10.33C91.67 12.52 93.30 14.14 95.37 14.14C96.56 14.14 97.45 13.69 98.10 12.87L98.29 14L98.97 14L98.97 3.08ZM95.40 13.23C93.97 13.23 92.74 11.97 92.74 10.33C92.74 8.72 93.97 7.49 95.40 7.49C96.60 7.49 97.45 8.11 97.93 9.03L97.93 11.68C97.44 12.63 96.61 13.23 95.40 13.23ZM104.51 6.58C102.47 6.58 100.88 8.19 100.88 10.33C100.88 12.50 102.42 14.14 104.52 14.14C106.19 14.14 107.45 13.06 107.69 11.76L106.69 11.76C106.48 12.66 105.63 13.23 104.52 13.23C103.08 13.23 102.02 12.15 101.91 10.63L107.73 10.63L107.83 10.54C108.01 8.41 106.53 6.58 104.51 6.58ZM101.95 9.74C102.20 8.39 103.26 7.48 104.50 7.48C105.78 7.48 106.68 8.48 106.82 9.76Z"></path></g><defs data-v-fde0c5aa=""><!----></defs><g data-v-fde0c5aa="" id="e321e586-6799-481e-9c17-d7d37f3970fb" stroke="none" fill="#ff8800" transform="matrix(0.5331880980802176,0,0,0.5331880980802176,39.46681190191978,123.14678090504057)"><circle cx="18.869" cy="28.494" r="12.767"></circle><path d="M48.443 72.14a4.483 4.483 0 0 0 3.173-1.309L68.06 54.394a4.466 4.466 0 0 0-6.312-6.318L48.471 61.147S34.283 45 30.645 45H9.612C5.4 45 1 48.857 1 53.07V85h33V60.665l10.739 10.166c.873.873 2.561 1.309 3.704 1.309z"></path><path d="M44 16v33.221l3.983 4.207L51 50.421V24h41v54H44v7h55V16z"></path></g><defs data-v-fde0c5aa=""><!----></defs><g data-v-fde0c5aa="" id="05ac473f-f95a-4652-9589-f82fbfeb42cf" fill="#0077CC" transform="matrix(0.6449427557454839,0,0,0.6449427557454839,104.46560343139988,154.30799298292945)"><path d="M1.22 15.68L1.22 5.88L2.39 5.88L2.39 14.59L7.52 14.59L7.52 15.68L1.22 15.68ZM16.88 15.68L16.88 5.88L22.82 5.88L22.82 6.97L18.06 6.97L18.06 10.22L22.74 10.22L22.74 11.31L18.06 11.31L18.06 14.59L22.90 14.59L22.90 15.68L16.88 15.68ZM31.98 6.97L31.98 5.88L38.86 5.88L38.86 6.97L36.01 6.97L36.01 15.68L34.83 15.68L34.83 6.97L31.98 6.97ZM63.20 5.88L64.37 5.88L64.37 12.38L64.37 12.38Q64.37 13.57 64.92 14.17L64.92 14.17L64.92 14.17Q65.48 14.78 66.56 14.78L66.56 14.78L66.56 14.78Q67.63 14.78 68.19 14.17L68.19 14.17L68.19 14.17Q68.74 13.57 68.74 12.38L68.74 12.38L68.74 5.88L69.92 5.88L69.92 12.38L69.92 12.38Q69.92 14.08 69.02 14.98L69.02 14.98L69.02 14.98Q68.12 15.88 66.56 15.88L66.56 15.88L66.56 15.88Q64.99 15.88 64.09 14.98L64.09 14.98L64.09 14.98Q63.20 14.08 63.20 12.38L63.20 12.38L63.20 5.88ZM84.43 9.21L84.43 8.71L84.43 8.71Q84.43 8.23 84.25 7.87L84.25 7.87L84.25 7.87Q84.06 7.50 83.73 7.27L83.73 7.27L83.73 7.27Q83.41 7.03 82.99 6.90L82.99 6.90L82.99 6.90Q82.57 6.78 82.11 6.78L82.11 6.78L82.11 6.78Q81.70 6.78 81.34 6.88L81.34 6.88L81.34 6.88Q80.98 6.99 80.69 7.18L80.69 7.18L80.69 7.18Q80.40 7.38 80.23 7.66L80.23 7.66L80.23 7.66Q80.07 7.95 80.07 8.33L80.07 8.33L80.07 8.41L80.07 8.41Q80.07 8.82 80.23 9.11L80.23 9.11L80.23 9.11Q80.40 9.39 80.73 9.60L80.73 9.60L80.73 9.60Q81.06 9.80 81.55 9.93L81.55 9.93L81.55 9.93Q82.04 10.07 82.70 10.16L82.70 10.16L82.70 10.16Q84.24 10.40 84.97 11.07L84.97 11.07L84.97 11.07Q85.69 11.73 85.69 12.85L85.69 12.85L85.69 13.02L85.69 13.02Q85.69 13.65 85.48 14.17L85.48 14.17L85.48 14.17Q85.26 14.70 84.83 15.08L84.83 15.08L84.83 15.08Q84.41 15.46 83.78 15.67L83.78 15.67L83.78 15.67Q83.15 15.88 82.32 15.88L82.32 15.88L82.32 15.88Q81.38 15.88 80.66 15.60L80.66 15.60L80.66 15.60Q79.94 15.33 79.46 14.85L79.46 14.85L79.46 14.85Q78.97 14.36 78.72 13.71L78.72 13.71L78.72 13.71Q78.47 13.06 78.47 12.29L78.47 12.29L78.47 11.87L79.65 11.87L79.65 12.21L79.65 12.21Q79.65 13.50 80.35 14.14L80.35 14.14L80.35 14.14Q81.06 14.78 82.32 14.78L82.32 14.78L82.32 14.78Q83.41 14.78 83.97 14.30L83.97 14.30L83.97 14.30Q84.52 13.82 84.52 13.02L84.52 13.02L84.52 12.94L84.52 12.94Q84.52 12.17 83.95 11.76L83.95 11.76L83.95 11.76Q83.38 11.35 82.11 11.17L82.11 11.17L82.11 11.17Q81.37 11.07 80.77 10.87L80.77 10.87L80.77 10.87Q80.18 10.67 79.76 10.34L79.76 10.34L79.76 10.34Q79.34 10.01 79.11 9.55L79.11 9.55L79.11 9.55Q78.89 9.09 78.89 8.46L78.89 8.46L78.89 8.29L78.89 8.29Q78.89 7.71 79.13 7.24L79.13 7.24L79.13 7.24Q79.37 6.76 79.79 6.41L79.79 6.41L79.79 6.41Q80.22 6.06 80.81 5.87L80.81 5.87L80.81 5.87Q81.41 5.68 82.12 5.68L82.12 5.68L82.12 5.68Q82.95 5.68 83.60 5.92L83.60 5.92L83.60 5.92Q84.25 6.16 84.70 6.56L84.70 6.56L84.70 6.56Q85.15 6.96 85.38 7.50L85.38 7.50L85.38 7.50Q85.61 8.04 85.61 8.62L85.61 8.62L85.61 9.21L84.43 9.21ZM112.32 12.07L112.32 10.98L116.69 10.98L116.69 15.68L115.60 15.68L115.60 14.50L115.43 14.50L115.43 14.50Q115.19 15.12 114.59 15.50L114.59 15.50L114.59 15.50Q113.99 15.88 113.19 15.88L113.19 15.88L113.19 15.88Q111.61 15.88 110.70 14.85L110.70 14.85L110.70 14.85Q109.80 13.83 109.80 11.87L109.80 11.87L109.80 9.69L109.80 9.69Q109.80 7.78 110.71 6.73L110.71 6.73L110.71 6.73Q111.62 5.68 113.25 5.68L113.25 5.68L113.25 5.68Q114.09 5.68 114.73 5.96L114.73 5.96L114.73 5.96Q115.37 6.23 115.81 6.71L115.81 6.71L115.81 6.71Q116.24 7.20 116.47 7.85L116.47 7.85L116.47 7.85Q116.69 8.50 116.69 9.24L116.69 9.24L116.69 9.41L115.51 9.41L115.51 9.24L115.51 9.24Q115.51 8.76 115.38 8.32L115.38 8.32L115.38 8.32Q115.25 7.87 114.97 7.53L114.97 7.53L114.97 7.53Q114.70 7.18 114.28 6.98L114.28 6.98L114.28 6.98Q113.85 6.78 113.25 6.78L113.25 6.78L113.25 6.78Q112.11 6.78 111.55 7.60L111.55 7.60L111.55 7.60Q110.98 8.43 110.98 9.77L110.98 9.77L110.98 11.79L110.98 11.79Q110.98 13.23 111.55 14.01L111.55 14.01L111.55 14.01Q112.11 14.78 113.27 14.78L113.27 14.78L113.27 14.78Q114.32 14.78 114.92 14.11L114.92 14.11L114.92 14.11Q115.51 13.44 115.51 12.24L115.51 12.24L115.51 12.07L112.32 12.07ZM125.47 5.88L126.64 5.88L126.64 12.38L126.64 12.38Q126.64 13.57 127.20 14.17L127.20 14.17L127.20 14.17Q127.75 14.78 128.83 14.78L128.83 14.78L128.83 14.78Q129.91 14.78 130.46 14.17L130.46 14.17L130.46 14.17Q131.01 13.57 131.01 12.38L131.01 12.38L131.01 5.88L132.19 5.88L132.19 12.38L132.19 12.38Q132.19 14.08 131.29 14.98L131.29 14.98L131.29 14.98Q130.40 15.88 128.83 15.88L128.83 15.88L128.83 15.88Q127.26 15.88 126.36 14.98L126.36 14.98L126.36 14.98Q125.47 14.08 125.47 12.38L125.47 12.38L125.47 5.88ZM141.29 6.97L141.29 5.88L147.50 5.88L147.50 6.97L144.98 6.97L144.98 14.59L147.50 14.59L147.50 15.68L141.29 15.68L141.29 14.59L143.81 14.59L143.81 6.97L141.29 6.97ZM156.70 6.97L156.70 5.88L159.92 5.88L159.92 5.88Q161.74 5.88 162.58 6.75L162.58 6.75L162.58 6.75Q163.42 7.62 163.42 9.52L163.42 9.52L163.42 12.04L163.42 12.04Q163.42 13.94 162.58 14.81L162.58 14.81L162.58 14.81Q161.74 15.68 159.92 15.68L159.92 15.68L156.70 15.68L156.70 14.57L157.54 14.57L157.54 6.97L156.70 6.97ZM158.72 14.59L159.75 14.59L159.75 14.59Q160.40 14.59 160.87 14.46L160.87 14.46L160.87 14.46Q161.34 14.34 161.64 14.04L161.64 14.04L161.64 14.04Q161.95 13.73 162.10 13.23L162.10 13.23L162.10 13.23Q162.25 12.73 162.25 11.96L162.25 11.96L162.25 9.60L162.25 9.60Q162.25 8.83 162.10 8.33L162.10 8.33L162.10 8.33Q161.95 7.83 161.64 7.53L161.64 7.53L161.64 7.53Q161.34 7.22 160.87 7.10L160.87 7.10L160.87 7.10Q160.40 6.97 159.75 6.97L159.75 6.97L158.72 6.97L158.72 14.59ZM172.56 15.68L172.56 5.88L178.50 5.88L178.50 6.97L173.74 6.97L173.74 10.22L178.42 10.22L178.42 11.31L173.74 11.31L173.74 14.59L178.58 14.59L178.58 15.68L172.56 15.68ZM206.08 15.68L206.08 12.24L205.83 12.24L202.76 5.88L204.08 5.88L206.58 11.23L206.75 11.23L209.26 5.88L210.57 5.88L207.51 12.24L207.26 12.24L207.26 15.68L206.08 15.68ZM218.79 11.87L218.79 9.69L218.79 9.69Q218.79 7.78 219.70 6.73L219.70 6.73L219.70 6.73Q220.61 5.68 222.24 5.68L222.24 5.68L222.24 5.68Q223.86 5.68 224.77 6.73L224.77 6.73L224.77 6.73Q225.68 7.78 225.68 9.69L225.68 9.69L225.68 11.87L225.68 11.87Q225.68 13.83 224.77 14.85L224.77 14.85L224.77 14.85Q223.86 15.88 222.24 15.88L222.24 15.88L222.24 15.88Q220.61 15.88 219.70 14.85L219.70 14.85L219.70 14.85Q218.79 13.83 218.79 11.87L218.79 11.87ZM222.24 14.78L222.24 14.78L222.24 14.78Q223.37 14.78 223.94 14.01L223.94 14.01L223.94 14.01Q224.50 13.23 224.50 11.79L224.50 11.79L224.50 9.77L224.50 9.77Q224.50 8.43 223.94 7.60L223.94 7.60L223.94 7.60Q223.37 6.78 222.24 6.78L222.24 6.78L222.24 6.78Q221.10 6.78 220.54 7.60L220.54 7.60L220.54 7.60Q219.97 8.43 219.97 9.77L219.97 9.77L219.97 11.79L219.97 11.79Q219.97 13.23 220.54 14.01L220.54 14.01L220.54 14.01Q221.10 14.78 222.24 14.78ZM234.44 5.88L235.62 5.88L235.62 12.38L235.62 12.38Q235.62 13.57 236.17 14.17L236.17 14.17L236.17 14.17Q236.73 14.78 237.80 14.78L237.80 14.78L237.80 14.78Q238.88 14.78 239.44 14.17L239.44 14.17L239.44 14.17Q239.99 13.57 239.99 12.38L239.99 12.38L239.99 5.88L241.16 5.88L241.16 12.38L241.16 12.38Q241.16 14.08 240.27 14.98L240.27 14.98L240.27 14.98Q239.37 15.88 237.80 15.88L237.80 15.88L237.80 15.88Q236.24 15.88 235.34 14.98L235.34 14.98L235.34 14.98Q234.44 14.08 234.44 12.38L234.44 12.38L234.44 5.88Z"></path></g></svg>